# xmcd
# 
# Track frame offsets:
#     150
#     15450
#     37867
#     57557
#     76652
#     101790
#     120530
#     136030
#     155422
#     168725
#     191407
#     211500
# 
# Disc length: 3532
# 
# Revision: 1
# Processed by: cddbd v1.5.2PL0 Copyright (c) Steve Scherf et al.
# Submitted via: fre:ac v1.1beta1pre4
# 
DISCID=8d0dca0c
DTITLE=John Brannen - The Good Thief
DYEAR=2004
DGENRE=Folk
TTITLE0=Witches Rain
TTITLE1=Summer In Savannah
TTITLE2=When I'm Satisfied
TTITLE3=Waiting
TTITLE4=Don't Wanna Lose Like That Again
TTITLE5=I Could Never Make It Right
TTITLE6=A Pair Of Dice
TTITLE7=Somebody's Following You
TTITLE8=Lookin' Good
TTITLE9=Lost Angels
TTITLE10=The Lonely Side Of Love
TTITLE11=Learning To Dance
EXTD=
EXTT0=
EXTT1=
EXTT2=
EXTT3=
EXTT4=
EXTT5=
EXTT6=
EXTT7=
EXTT8=
EXTT9=
EXTT10=
EXTT11=
PLAYORDER=
